<?xml version="1.0" encoding="UTF-8"?><svg id="Layer_2" xmlns="http://www.w3.org/2000/svg" viewBox="0 0 200 55.16"><defs><style>.cls-1{fill:#3f4bd2;}.cls-2{fill:#282945;}</style></defs><g id="Layer_1-2"><g><g><polygon class="cls-1" points="164.68 35.72 171.4 32.73 164.71 29.74 158 32.74 164.68 35.72"/><polygon class="cls-1" points="155.17 5.94 159.94 8.07 159.94 8.07 162.77 9.33 162.77 9.33 163.86 9.82 164.71 10.19 164.71 10.19 169.47 12.32 170.38 12.73 170.4 12.72 173.63 14.16 180.35 11.17 173.66 8.19 173.63 8.2 171.4 7.21 171.4 7.2 169.61 6.41 169.46 6.34 169.46 6.34 164.68 4.22 164.68 4.22 159.9 2.1 159.9 2.1 155.17 0 148.51 2.96 155.17 5.94 155.17 5.94"/><polygon class="cls-1" points="193.3 16.98 193.3 16.98 188.53 14.85 183.77 12.72 179 14.85 179 14.85 174.24 16.98 174.24 16.98 174.24 16.98 171.41 15.71 171.4 15.72 169.82 15.01 163.11 18 169.79 20.98 169.8 20.98 174.24 22.96 179 20.83 179 20.83 183.77 18.7 183.77 18.7 186.6 19.97 183.77 21.23 177.06 24.22 183.77 27.22 190.47 24.22 190.47 24.22 193.3 22.96 193.3 22.96 200 19.97 193.3 16.98"/><polygon class="cls-1" points="136.11 14.45 138.94 15.71 138.94 15.71 145.64 18.7 152.35 15.71 152.35 15.71 155.15 14.46 159.91 16.59 166.63 13.6 164.69 12.74 164.72 12.72 159.94 10.59 159.94 10.59 155.17 8.46 150.41 10.59 150.41 10.59 145.64 12.72 145.64 12.72 142.81 11.46 145.64 10.19 145.64 10.19 146.49 9.82 147.58 9.33 147.58 9.33 152.35 7.2 145.67 4.22 140.89 6.34 140.89 6.34 140.77 6.4 138.95 7.2 138.95 7.21 136.12 8.47 136.11 8.46 129.41 11.46 136.11 14.45 136.11 14.45"/><polygon class="cls-1" points="123.75 19.97 126.58 18.7 136.11 22.96 142.81 19.97 126.58 12.72 110.35 19.97 120.98 24.72 120.98 28.9 127.37 31.73 127.37 21.58 123.75 19.97"/><polygon class="cls-1" points="173.81 39.56 155.26 48.22 136.9 39.08 136.9 31.12 140.88 29.34 140.88 29.34 145.64 27.22 148.47 28.48 143.71 30.61 143.71 30.61 138.95 32.73 145.67 35.72 145.67 35.72 148.73 37.07 148.7 37.08 155.38 40.06 162.1 37.08 155.41 34.09 155.39 34.1 152.35 32.74 155.17 31.47 161.88 28.48 155.17 25.49 155.17 25.49 150.41 23.36 145.64 21.23 140.88 23.36 134.18 26.35 134.18 26.35 130.56 27.97 130.56 42.56 155.26 55.16 180.55 42.59 180.55 33.83 173.81 36.64 173.81 39.56"/><polygon class="cls-1" points="120.98 34.2 127.37 36.93 127.37 34.07 120.98 31.25 120.98 34.2"/><polygon class="cls-1" points="174.27 25.5 167.6 28.48 169.5 29.33 174.27 31.46 180.99 28.48 174.3 25.49 174.27 25.5"/><polygon class="cls-1" points="171.14 24.1 165.31 21.5 164.71 21.23 164.71 21.23 164.6 21.18 159.94 19.1 155.17 16.98 148.47 19.97 155.17 22.96 155.17 22.96 157.74 24.11 157.74 24.11 164.42 27.09 164.42 27.09 171.14 24.11 171.14 24.1"/></g><rect class="cls-2" x="41.79" y="12.65" width="6.89" height="6.89"/><rect class="cls-2" x="53.28" y="48.27" width="6.89" height="6.89"/><path class="cls-2" d="M97.42,19.51v-6.89h-32.66V30.99h25.77v4.66h-30.37v-11.55h-6.89v11.55h-4.59v-11.55H30.31v11.55H6.89v-4.76H25.71v-6.8H0v18.44H97.42V24.1h-25.77v-4.59h25.77Zm-55.63,16.15h-4.59v-4.66h4.59v4.66Z"/><rect class="cls-2" x="41.79" y="48.27" width="6.89" height="6.89"/></g></g></svg>