<?xml version="1.0" encoding="UTF-8" standalone="no"?>
<svg
   xmlns:dc="http://purl.org/dc/elements/1.1/"
   xmlns:cc="http://creativecommons.org/ns#"
   xmlns:rdf="http://www.w3.org/1999/02/22-rdf-syntax-ns#"
   xmlns:svg="http://www.w3.org/2000/svg"
   xmlns="http://www.w3.org/2000/svg"
   viewBox="0 0 322.74002 198.66667"
   height="198.66667"
   width="322.74002"
   xml:space="preserve"
   id="svg2"
   version="1.1"><metadata
     id="metadata8"><rdf:RDF><cc:Work
         rdf:about=""><dc:format>image/svg+xml</dc:format><dc:type
           rdf:resource="http://purl.org/dc/dcmitype/StillImage" /></cc:Work></rdf:RDF></metadata><defs
     id="defs6" /><g
     transform="matrix(1.3333333,0,0,-1.3333333,0,198.66667)"
     id="g10"><g
       transform="translate(128.65501,52.511963)"
       id="g12"><path
         id="path14"
         style="fill:#3f4bd2;fill-opacity:1;fill-rule:nonzero;stroke:none"
         d="M 18.03598,0 36.179985,8.076691 18.117018,16.153376 0,8.049672 Z" /></g><g
       transform="translate(103.03199,110.75055)"
       id="g16"><path
         id="path18"
         style="fill:#3f4bd2;fill-opacity:1;fill-rule:nonzero;stroke:none"
         d="m 17.98201,22.204132 12.879011,-5.753624 7.641005,-3.403555 2.942993,-1.323602 2.295013,-0.999457 L 56.592018,4.970268 59.04903,3.862762 59.103001,3.889774 67.824028,0 85.968033,8.076685 67.905029,16.12636 l -0.081,-0.02701 -6.02103,2.674221 v 0.02701 L 56.970017,20.934555 56.565034,21.12364 43.658997,26.850254 30.752998,32.576866 17.98201,38.249454 0,30.253805 Z" /></g><g
       transform="translate(142.45201,75.472443)"
       id="g20"><path
         id="path22"
         style="fill:#3f4bd2;fill-opacity:1;fill-rule:nonzero;stroke:none"
         d="M 81.513008,27.660624 68.633995,33.414246 55.782009,39.167873 42.903,33.414246 30.051014,27.660624 22.410009,31.091187 22.382982,31.064175 18.117018,32.982048 0,24.905365 18.03598,16.855692 h 0.02703 L 30.051017,11.507252 42.903,17.260876 55.782009,23.0145 63.423016,19.583937 55.782009,16.180384 37.664993,8.103697 55.782009,0 l 18.089993,8.103697 7.641006,3.403555 18.089989,8.076685 z" /></g><g
       transform="translate(51.462021,98.486946)"
       id="g24"><path
         id="path26"
         style="fill:#3f4bd2;fill-opacity:1;fill-rule:nonzero;stroke:none"
         d="M 18.089993,11.480244 25.730997,8.076691 43.820988,0 l 18.117019,8.076691 7.559971,3.376541 12.85202,-5.753628 18.144002,8.076685 -5.238003,2.323061 0.081,0.05403 L 82.431,21.907 69.551987,27.660625 56.700001,21.907 43.820988,16.153376 l -7.641003,3.403553 7.641003,3.430566 2.295017,0.999455 2.942989,1.323605 12.879013,5.753625 -18.036022,8.049673 -12.905996,-5.726615 -0.323986,-0.162072 -4.914021,-2.160986 v -0.02701 l -7.641004,-3.403553 -0.02698,0.02701 L 0,19.556929 Z" /></g><g
       transform="translate(0,63.28989)"
       id="g28"><path
         id="path30"
         style="fill:#3f4bd2;fill-opacity:1;fill-rule:nonzero;stroke:none"
         d="M 36.180004,31.766495 43.821011,35.19706 69.55201,23.68981 87.641998,31.766495 43.821011,51.35043 0,31.766495 28.701014,18.935638 V 7.644485 L 45.954014,0 v 27.417509 z" /></g><g
       transform="translate(54.567001)"
       id="g32"><path
         id="path34"
         style="fill:#3f4bd2;fill-opacity:1;fill-rule:nonzero;stroke:none"
         d="M 116.775,42.139229 66.689995,18.746552 17.11799,43.435818 v 21.501819 l 10.746029,4.808197 12.851988,5.726616 7.641003,-3.403557 -12.851986,-5.753631 -12.852026,-5.726608 18.144003,-8.076691 8.261993,-3.64666 -0.08099,-0.02702 18.036022,-8.049672 18.144005,8.049672 -18.063012,8.07669 -0.05401,-0.02701 -8.207985,3.673672 7.613983,3.430572 L 84.564019,72.06889 66.447006,80.145576 53.595016,85.8992 40.716007,91.652832 27.864019,85.8992 9.773987,77.822517 0,73.446526 V 34.03553 L 66.689995,0 134.97302,33.954494 V 57.61729 L 116.775,50.026833 Z" /></g><g
       transform="translate(28.701019,49.243477)"
       id="g36"><path
         id="path38"
         style="fill:#3f4bd2;fill-opacity:1;fill-rule:nonzero;stroke:none"
         d="M 0,7.374365 17.252998,0 V 7.725528 L 0,15.343004 Z" /></g><g
       transform="translate(154.57503,64.019218)"
       id="g40"><path
         id="path42"
         style="fill:#3f4bd2;fill-opacity:1;fill-rule:nonzero;stroke:none"
         d="M 18.008995,16.099344 0,8.049672 5.129983,5.753623 18.008995,0 36.153,8.049672 l -18.063007,8.076686 -0.081,-0.02701 z" /></g><g
       transform="translate(102.92401,75.823608)"
       id="g44"><path
         id="path46"
         style="fill:#3f4bd2;fill-opacity:1;fill-rule:nonzero;stroke:none"
         d="m 61.208996,8.076687 -15.741005,7.023207 -1.619976,0.729333 -0.297001,0.13506 -12.58201,5.618564 L 18.089993,27.309467 0,19.23278 18.089993,11.156096 25.029013,8.049673 43.064991,0 61.208996,8.049673 Z" /></g></g></svg>